<?xml version="1.0" encoding="utf-8"?>
<!-- Generator: Adobe Illustrator 22.1.0, SVG Export Plug-In . SVG Version: 6.00 Build 0)  -->
<svg version="1.1" id="Livello_1" xmlns="http://www.w3.org/2000/svg" xmlns:xlink="http://www.w3.org/1999/xlink" x="0px" y="0px"
	 viewBox="0 0 924.9 494.1" enable-background="new 0 0 924.9 494.1" xml:space="preserve">
<rect fill="#FFFFFF" width="924.9" height="494.1"/>
<g>
	<path fill="#C7C1DC" d="M24.1,166c-1.2,0.6-2.2,1.1-3.1,1.9c-1.6,1.6-2.4,4.4-0.5,6c2.5,2.1,4.3,2.8,8.1,2.1
		c1.5-0.3,3.4-0.3,4.9-0.2c1.5,0.2,2.8,0.8,4.4,0.7c6.7-0.6,1-10.4-2.5-12.1c-1.4-0.7-3.2-1.1-4.6-0.4c-1.1,0.5-1.2,0.3-2.5,0.2
		c-0.4,0-1.1,0.3-1.7,0.4"/>
	<g>
		<path fill="#FBCC9A" d="M285.8,101.3c4.2-1.7,10-3.3,8.3-8.2c-2.1-5.4-8.2-6.6-14.5-4.2c-11.9,4.9-3.7,17.3,5.9,12.5"/>
	</g>
	<g>
		<path fill="#C9684D" d="M254.8,134.1c-5.2,0-9.3,0.9-9,7.2c0.2,4.5,5.6,6.8,9.9,6.6c1.6,0,7.5-0.7,8.6-1.6c2.9-2,0.7-4.3-0.5-6.8
			c-2.3-4.3-3.4-7.5-9-5.9"/>
	</g>
	<g>
		<path fill="#685936" d="M591.9,102.2c-4.5,0.4-10.5,0.4-10.3,5.6c0.5,5.8,6.1,8.6,12.8,8c12.8-1.4,8.3-15.6-2.3-13.7"/>
	</g>
	<g>
		<path fill="#F3BC9F" d="M646.9,248.4c-4.7,2.1-8.1,4.6-5.3,10.3c2.1,4,7.9,3.9,11.7,1.9c1.4-0.6,6.5-3.7,7.2-4.9
			c1.9-3.1-1.1-4.2-3.2-6c-3.8-3-6.1-5.4-10.6-1.7"/>
	</g>
	<path fill="#D5ABC2" d="M695.8,125.1c-1.2,0.6-2.2,1.1-3.1,1.9c-1.6,1.6-2.3,4.4-0.5,6c2.5,2.1,4.3,2.8,8.1,2.1
		c1.5-0.3,3.4-0.3,4.9-0.2c1.5,0.2,2.8,0.8,4.4,0.7c6.7-0.6,1-10.4-2.5-12.1c-1.4-0.7-3.2-1.1-4.6-0.4c-1.1,0.5-1.2,0.3-2.5,0.2
		c-0.4,0-1.1,0.3-1.7,0.4"/>
	<g>
		<path fill="#C9684D" d="M635.7,58.1c4.2-1.7,10-3.3,8.3-8.2c-2.1-5.4-8.2-6.6-14.5-4.2c-11.9,4.9-3.7,17.3,5.9,12.5"/>
	</g>
	<g>
		<path fill="#DD9639" d="M141,126.7c-5.2,0-9.3,0.9-9,7.2c0.2,4.5,5.6,6.8,9.9,6.6c1.6,0,7.5-0.7,8.6-1.6c2.9-2,0.7-4.3-0.5-6.8
			c-2.3-4.3-3.4-7.5-9-5.9"/>
	</g>
	<g>
		<path fill="#DD9639" d="M747.7,447c-5.2,0-9.3,0.9-9,7.2c0.2,4.5,5.6,6.8,9.9,6.6c1.6,0,7.5-0.7,8.6-1.6c2.9-2,0.7-4.3-0.5-6.8
			c-2.3-4.3-3.4-7.5-9-5.9"/>
	</g>
	<path fill="#685936" d="M67.2,279.4c-1.2,0.6-2.2,1.1-3.1,1.9c-1.6,1.6-2.4,4.4-0.5,6c2.5,2.1,4.3,2.8,8.1,2.1
		c1.5-0.3,3.4-0.3,4.9-0.2c1.5,0.2,2.8,0.8,4.4,0.7c6.7-0.6,1-10.4-2.5-12.1c-1.4-0.7-3.2-1.1-4.6-0.4c-1.1,0.5-1.2,0.3-2.5,0.2
		c-0.4,0-1.1,0.3-1.7,0.4"/>
	<g>
		<path fill="#DDB87C" d="M780.3,206.8c4.2-1.7,10-3.3,8.3-8.2c-2.1-5.4-8.2-6.6-14.5-4.2c-11.9,4.9-3.7,17.3,5.9,12.5"/>
	</g>
	<g>
		<path fill="#DDB87C" d="M161,263.8c-5.2,0-9.3,0.9-9,7.2c0.2,4.5,5.6,6.8,9.9,6.6c1.6,0,7.5-0.7,8.6-1.6c2.9-2,0.7-4.3-0.5-6.8
			c-2.3-4.3-3.4-7.5-9-5.9"/>
	</g>
	<g>
		<path fill="#DDB87C" d="M886.7,115.1c4.2-1.7,10-3.3,8.3-8.2c-2.1-5.4-8.2-6.6-14.5-4.2c-11.9,4.9-3.7,17.3,5.9,12.5"/>
	</g>
	<g>
		<path fill="#C7C1DC" d="M456.8,432.7c4.2-1.7,10-3.3,8.3-8.2c-2.1-5.4-8.2-6.6-14.5-4.2c-11.9,4.9-3.7,17.3,5.9,12.5"/>
	</g>
	<g>
		<path fill="#DDB87C" d="M619.9,194.9c-4.8,2.1-8.1,4.5-5.4,10.2c2,4.1,7.9,4,11.7,2.1c1.5-0.6,6.6-3.6,7.2-4.9
			c1.9-3-1.1-4.2-3.1-6c-3.8-3-6.1-5.5-10.6-1.8"/>
	</g>
	<g>
		<path fill="#B8C7C1" d="M423.8,120.2c-4.8,2.1-8.1,4.5-5.4,10.2c2,4.1,7.9,4,11.7,2.1c1.5-0.6,6.6-3.6,7.2-4.9
			c1.9-3-1.1-4.2-3.1-6c-3.8-3-6.1-5.5-10.6-1.8"/>
	</g>
	<path fill="#C7C1DC" d="M564.6,297.8c-1.2,0.6-2.2,1.1-3.1,1.9c-1.6,1.6-2.4,4.4-0.5,6c2.5,2.1,4.3,2.8,8.1,2.1
		c1.5-0.3,3.4-0.3,4.9-0.2c1.5,0.2,2.8,0.8,4.4,0.7c6.7-0.6,1-10.4-2.5-12.1c-1.4-0.7-3.2-1.1-4.6-0.4c-1.1,0.5-1.2,0.3-2.5,0.2
		c-0.4,0-1.1,0.3-1.7,0.4"/>
	<path fill="#83520E" d="M737.7,258.8c-1.2,0.6-2.2,1.1-3.1,1.9c-1.6,1.6-2.3,4.4-0.5,6c2.5,2.1,4.3,2.8,8.1,2.1
		c1.5-0.3,3.4-0.3,4.9-0.2c1.5,0.2,2.8,0.8,4.4,0.7c6.7-0.6,1-10.4-2.5-12.1c-1.4-0.7-3.2-1.1-4.6-0.4c-1.1,0.5-1.2,0.3-2.5,0.2
		c-0.4,0-1.1,0.3-1.7,0.4"/>
	<g>
		<path fill="#D5ABC2" d="M333.8,161.8c4.5,0.7,10.3,2.2,11.3-2.9c0.9-5.7-3.8-9.9-10.4-10.9c-12.8-1.7-11.8,13.1-1.1,13.8"/>
	</g>
	<g>
		<path fill="#FBCC9A" d="M84.8,432.4c4.5-0.5,10.5-0.6,10.2-5.7c-0.6-5.7-6.2-8.5-12.9-7.8c-12.8,1.6-8.1,15.7,2.5,13.6"/>
	</g>
	<g>
		<path fill="#D5ABC2" d="M194.6,432.4c4.5-0.5,10.5-0.6,10.2-5.7c-0.6-5.7-6.2-8.5-12.9-7.8c-12.8,1.6-8.1,15.7,2.5,13.6"/>
	</g>
	<g>
		<path fill="#F3BC9F" d="M316.9,321.3c-5.2,0-9.3,0.9-9,7.2c0.2,4.5,5.6,6.8,9.9,6.6c1.6,0,7.5-0.7,8.6-1.6c2.9-2,0.7-4.3-0.5-6.8
			c-2.3-4.3-3.4-7.5-9-5.9"/>
	</g>
	<g>
		<path fill="#C7C1DC" d="M742.9,51.9c-5.2,0-9.3,0.9-9,7.2c0.2,4.5,5.6,6.8,9.9,6.6c1.6,0,7.5-0.7,8.6-1.6c2.9-2,0.7-4.3-0.5-6.8
			c-2.3-4.3-3.4-7.5-9-5.9"/>
	</g>
	<g>
		<path fill="#F3BC9F" d="M491.1,26.2c-5.2,0-9.3,0.9-9,7.2c0.2,4.5,5.6,6.8,9.9,6.6c1.6,0,7.5-0.7,8.6-1.6c2.9-2,0.7-4.3-0.5-6.8
			c-2.3-4.3-3.4-7.5-9-5.9"/>
	</g>
	<g>
		<path fill="#83520E" d="M196.4,337.3c-4.8,2.1-8.1,4.5-5.4,10.2c2,4.1,7.9,4,11.7,2.1c1.5-0.6,6.6-3.6,7.2-4.9
			c1.9-3-1.1-4.2-3.1-6c-3.8-3-6.1-5.5-10.6-1.8"/>
	</g>
	<g>
		<path fill="#DD9639" d="M865.4,45.4c-4.8,2.1-8.1,4.5-5.4,10.2c2,4.1,7.9,4,11.7,2.1c1.5-0.6,6.6-3.6,7.2-4.9c1.9-3-1.1-4.2-3.1-6
			c-3.8-3-6.1-5.5-10.6-1.8"/>
	</g>
	<g>
		<path fill="#C9684D" d="M273.3,447.2c4.5,0.1,10.5,0.8,10.8-4.4c0.1-5.8-5.1-9.3-11.8-9.4c-12.9,0-10,14.6,0.8,13.8"/>
	</g>
	<g>
		<path fill="#B8C7C1" d="M615.2,374.3c4.2-1.7,10-3.3,8.3-8.2c-2.1-5.4-8.2-6.6-14.5-4.2c-11.9,4.9-3.7,17.3,5.9,12.5"/>
	</g>
	<g>
		<path fill="#DDB87C" d="M561.7,467.1c4.2-1.7,10-3.3,8.3-8.2c-2.1-5.4-8.2-6.6-14.5-4.2c-11.9,4.9-3.7,17.3,5.9,12.5"/>
	</g>
	<g>
		<path fill="#F9C3A5" d="M400.3,460.7c4.5-0.4,10.5-0.3,10.3-5.4c-0.5-5.8-6-8.7-12.7-8.2c-12.8,1.2-8.5,15.5,2.1,13.7"/>
	</g>
	<g>
		<path fill="#F3BC9F" d="M842.7,301.8c-5.2,0-9.3,0.9-9,7.2c0.2,4.5,5.6,6.8,9.9,6.6c1.6,0,7.5-0.7,8.6-1.6c2.9-2,0.7-4.3-0.5-6.8
			c-2.3-4.3-3.4-7.5-9-5.9"/>
	</g>
	<path fill="#DDB87C" d="M78,47.9c-1.2,0.6-2.2,1.1-3.1,1.9c-1.6,1.6-2.4,4.4-0.5,6c2.5,2.1,4.3,2.8,8.1,2.1
		c1.5-0.3,3.4-0.3,4.9-0.2c1.5,0.2,2.8,0.8,4.4,0.7c6.7-0.6,1-10.4-2.5-12.1c-1.4-0.7-3.2-1.1-4.6-0.4c-1.1,0.5-1.2,0.3-2.5,0.2
		c-0.4,0-1.1,0.3-1.7,0.4"/>
	<g>
		<path fill="#B8C7C1" d="M161,18.8c-5.2,0-9.3,0.9-9,7.2c0.2,4.5,5.6,6.8,9.9,6.6c1.6,0,7.5-0.7,8.6-1.6c2.9-2,0.7-4.3-0.5-6.8
			c-2.3-4.3-3.4-7.5-9-5.9"/>
	</g>
	<g>
		<path fill="#C9684D" d="M712.8,388.2c4.5-0.8,10.5-1.2,9.8-6.3c-1-5.7-6.7-8.2-13.3-7c-12.7,2.4-7.1,16.2,3.3,13.4"/>
	</g>
	<g>
		<path fill="#C7C1DC" d="M742.6,334.4c4.5,0.5,10.4,1.8,11.2-3.4c0.6-5.7-4.2-9.7-10.9-10.4c-12.8-1.2-11.3,13.6-0.6,13.8"/>
	</g>
	<g>
		<path fill="#C9684D" d="M529.9,425.3c4.2-1.7,10-3.3,8.3-8.2c-2.1-5.4-8.2-6.6-14.5-4.2c-11.9,4.9-3.7,17.3,5.9,12.5"/>
	</g>
	<g>
		<path fill="#C9684D" d="M242.5,252.3c4.2-1.7,10-3.3,8.3-8.2c-2.1-5.4-8.2-6.6-14.5-4.2c-11.9,4.9-3.7,17.3,5.9,12.5"/>
	</g>
	<g>
		<path fill="#FBCC9A" d="M428.3,337.3c-4.8,2.1-8.1,4.5-5.4,10.2c2,4.1,7.9,4,11.7,2.1c1.5-0.6,6.6-3.6,7.2-4.9
			c1.9-3-1.1-4.2-3.1-6c-3.8-3-6.1-5.5-10.6-1.8"/>
	</g>
	<g>
		<path fill="#C7C1DC" d="M881.2,229.1c4.2-1.7,10-3.3,8.3-8.2c-2.1-5.4-8.2-6.6-14.5-4.2c-11.9,4.9-3.7,17.3,5.9,12.5"/>
	</g>
	<g>
		<path fill="#D5ABC2" d="M370.5,43.8c4.5-0.8,10.4-1.3,9.7-6.5c-1.1-5.7-6.9-8-13.4-6.8c-12.6,2.6-6.9,16.3,3.5,13.4"/>
	</g>
	<g>
		<path fill="#D5ABC2" d="M862.7,396.1c-5.2,0-9.3,0.9-9,7.2c0.2,4.5,5.6,6.8,9.9,6.6c1.6,0,7.5-0.7,8.6-1.6c2.9-2,0.7-4.3-0.5-6.8
			c-2.3-4.3-3.4-7.5-9-5.9"/>
	</g>
</g>
</svg>
